<?xml version="1.0" encoding="utf-8"?>
<!-- Generator: Adobe Illustrator 16.0.0, SVG Export Plug-In . SVG Version: 6.00 Build 0)  -->
<!DOCTYPE svg PUBLIC "-//W3C//DTD SVG 1.1//EN" "http://www.w3.org/Graphics/SVG/1.1/DTD/svg11.dtd">
<svg version="1.1" id="Layer_1" xmlns="http://www.w3.org/2000/svg" xmlns:xlink="http://www.w3.org/1999/xlink" x="0px" y="0px"
	 width="720px" height="157.5px" viewBox="0 0 720 157.5" enable-background="new 0 0 720 157.5" xml:space="preserve">
<g>
	<defs>
		<rect id="SVGID_1_" y="-148.5" width="720" height="432"/>
	</defs>
	<clipPath id="SVGID_2_">
		<use xlink:href="#SVGID_1_"  overflow="visible"/>
	</clipPath>
	<rect y="-148.5" display="none" clip-path="url(#SVGID_2_)" fill="#454545" width="720" height="432"/>
	<g clip-path="url(#SVGID_2_)">
		<path opacity="0.2" fill="#FFFFFF" d="M831.769,55.874c-32.805,1.594-71.376,6.211-113.036,16.543
			c-122.955,30.493-254.625,12.606-284.743,5.162c-30.12-7.445-186.146-35.862-321.936-22.071
			C-23.734,69.299-99.448,95.151-105.458,93.932l3.098,53.94c0,0,92.116-50.435,281.725-57.688
			c189.61-7.253,208.185,37.884,397.793,30.631c145.917-5.582,162.052-33.349,255.499-49.437L831.769,55.874z"/>
		<path opacity="0.2" fill="#FFFFFF" d="M1174.299,12.091c-58.177,3.48-126.44,13.476-199.905,35.778
			c-216.809,65.806-451.552,27.515-505.414,11.539c-53.873-15.976-332.4-76.89-572.852-47.005
			c-240.45,29.887-373.602,85.636-384.333,83.023l8.235,116.073c0,0,161.036-108.675,497.396-124.574
			c336.363-15.899,371.642,81.208,708.002,65.309c258.854-12.235,286.097-72.013,451.238-106.777L1174.299,12.091z"/>
		<path opacity="0.2" fill="#FFFFFF" d="M-105.583,87.396c32.844-0.918,71.774,0.734,114.438,7.842
			c125.908,20.971,254.952-6.889,284.085-16.6c29.135-9.711,181.221-49.915,317.996-46.551
			c136.773,3.364,215.117,23.323,220.96,21.651l3.097,53.94c0,0-97.494-43.182-287.101-35.928
			c-189.61,7.252-202.932,53.609-392.541,60.863C9.434,138.196-9.81,111.784-104.693,102.897L-105.583,87.396z"/>
	</g>
</g>
</svg>
