<?xml version="1.0" encoding="utf-8"?>
<!-- Generator: Adobe Illustrator 16.0.0, SVG Export Plug-In . SVG Version: 6.00 Build 0)  -->
<!DOCTYPE svg PUBLIC "-//W3C//DTD SVG 1.1//EN" "http://www.w3.org/Graphics/SVG/1.1/DTD/svg11.dtd">
<svg version="1.1" id="Layer_1" xmlns="http://www.w3.org/2000/svg" xmlns:xlink="http://www.w3.org/1999/xlink" x="0px" y="0px"
	 width="378px" height="117px" viewBox="0 0 378 117" enable-background="new 0 0 378 117" xml:space="preserve">
<g>
	<path fill="#FFFFFF" d="M21.419,61.58l8.237,21.139l8.31-21.139h16.983l-18.951,48.618h-12.61L4.436,61.58H21.419z"/>
	<path fill="#FFFFFF" d="M61.728,61.58H73.39l18.441,48.618H76.524l-1.604-4.374H60.197l-1.604,4.374H43.286L61.728,61.58z
		 M70.839,95.109l-3.28-8.527l-3.28,8.527H70.839z"/>
	<path fill="#FFFFFF" d="M132.211,80.095c0,3.353-0.583,6.208-1.749,8.564c-1.167,2.357-2.759,4.265-4.774,5.722
		c-2.017,1.458-4.374,2.527-7.07,3.207c-2.697,0.682-5.601,1.021-8.71,1.021v11.589H94.382V61.58h15.525
		c3.109,0,6.014,0.342,8.71,1.021c2.697,0.681,5.053,1.749,7.07,3.207c2.016,1.457,3.608,3.365,4.774,5.722
		C131.628,73.888,132.211,76.742,132.211,80.095z M109.907,85.488h0.656c2.041,0,3.51-0.474,4.41-1.421
		c0.898-0.948,1.349-2.271,1.349-3.973c0-1.7-0.45-3.024-1.349-3.973c-0.9-0.947-2.369-1.421-4.41-1.421h-0.656V85.488z"/>
	<path fill="#FFFFFF" d="M135.855,61.58H164.5v12.756h-13.12v5.395h12.901v12.1H151.38v5.612h13.63v12.756h-29.156V61.58z"/>
	<path fill="#FFFFFF" d="M169.529,95.109c1.068,0.342,2.187,0.609,3.353,0.803c0.971,0.244,2.077,0.438,3.316,0.583
		c1.239,0.146,2.49,0.218,3.754,0.218c2.234,0,3.353-0.825,3.353-2.478c0-0.631-0.34-1.275-1.021-1.932
		c-0.681-0.655-1.543-1.385-2.587-2.187c-1.045-0.802-2.163-1.688-3.353-2.66c-1.191-0.972-2.309-2.09-3.353-3.354
		c-1.045-1.263-1.907-2.684-2.587-4.264c-0.681-1.578-1.021-3.39-1.021-5.431c0-2.283,0.413-4.3,1.239-6.05
		c0.826-1.75,1.968-3.207,3.426-4.373s3.171-2.053,5.139-2.66c1.968-0.607,4.069-0.912,6.305-0.912c1.166,0,2.333,0.062,3.499,0.183
		c1.167,0.122,2.21,0.231,3.134,0.328c1.068,0.146,2.113,0.292,3.135,0.437v13.631c-0.391-0.047-0.827-0.097-1.312-0.146
		c-0.39-0.048-0.826-0.097-1.312-0.146s-0.996-0.073-1.53-0.073c-0.292,0-0.655,0.013-1.093,0.036
		c-0.438,0.025-0.851,0.086-1.24,0.183c-0.389,0.099-0.729,0.268-1.021,0.511s-0.437,0.582-0.437,1.02
		c0,0.39,0.328,0.875,0.984,1.458c0.656,0.583,1.458,1.265,2.405,2.041c0.948,0.778,1.992,1.677,3.135,2.696
		c1.141,1.021,2.187,2.188,3.135,3.5c0.947,1.312,1.749,2.795,2.404,4.445c0.656,1.652,0.984,3.499,0.984,5.54
		c0,2.139-0.34,4.144-1.02,6.013c-0.682,1.872-1.738,3.5-3.172,4.885s-3.268,2.479-5.503,3.279
		c-2.235,0.803-4.883,1.203-7.945,1.203c-1.847,0-3.56-0.086-5.139-0.256c-1.58-0.17-2.977-0.377-4.191-0.619
		c-1.41-0.244-2.697-0.534-3.863-0.875V95.109z"/>
	<path fill="#FFFFFF" d="M202.549,85.926c0-3.887,0.68-7.398,2.04-10.532s3.208-5.819,5.539-8.055
		c2.334-2.234,5.055-3.947,8.164-5.139c3.109-1.19,6.414-1.786,9.914-1.786c2.77,0,5.234,0.268,7.398,0.803
		c2.16,0.535,4.02,1.142,5.576,1.822c1.797,0.777,3.352,1.628,4.664,2.551l-7.654,13.484c-0.777-0.583-1.627-1.141-2.551-1.676
		c-0.826-0.389-1.811-0.766-2.951-1.131c-1.143-0.364-2.441-0.547-3.9-0.547c-1.506,0-2.891,0.268-4.154,0.803
		s-2.369,1.264-3.316,2.187s-1.689,2.005-2.223,3.243c-0.535,1.239-0.803,2.564-0.803,3.973c0,1.41,0.279,2.733,0.838,3.973
		s1.324,2.321,2.297,3.244c0.971,0.923,2.113,1.652,3.426,2.186c1.312,0.535,2.744,0.803,4.301,0.803
		c1.555,0,2.939-0.193,4.154-0.584c1.215-0.388,2.234-0.825,3.061-1.312c0.973-0.534,1.822-1.166,2.553-1.896l7.652,13.484
		c-1.312,1.07-2.867,2.018-4.664,2.844c-1.557,0.681-3.426,1.312-5.613,1.895c-2.186,0.584-4.689,0.875-7.508,0.875
		c-3.789,0-7.289-0.619-10.496-1.859c-3.207-1.238-5.977-2.976-8.309-5.211c-2.333-2.234-4.155-4.92-5.468-8.055
		C203.204,93.178,202.549,89.717,202.549,85.926z"/>
	<path fill="#FFFFFF" d="M302.333,61.58h16.765c3.109,0,5.988,0.414,8.638,1.24c2.648,0.826,4.944,2.041,6.889,3.645
		c1.942,1.604,3.462,3.584,4.556,5.939c1.093,2.357,1.64,5.066,1.64,8.128c0,2.431-0.341,4.495-1.021,6.195
		c-0.681,1.702-1.434,3.11-2.26,4.228c-0.973,1.265-2.065,2.332-3.28,3.207l9.111,16.036h-18.223l-7.288-12.318v12.318h-15.526
		V61.58z M317.859,85.488h0.802c1.846,0,3.413-0.412,4.701-1.238c1.287-0.826,1.932-2.211,1.932-4.155
		c0-1.942-0.645-3.328-1.932-4.155c-1.288-0.825-2.855-1.238-4.701-1.238h-0.802V85.488z"/>
	<path fill="#FFFFFF" d="M344.827,61.58h28.646v12.756h-13.12v5.395h12.901v12.1h-12.901v5.612h13.63v12.756h-29.156V61.58z"/>
</g>
<g>
	<polygon fill="#FFFFFF" points="269.583,99.333 270.572,99.187 270.572,99.187 	"/>
	<g>
		<path fill="#FFFFFF" d="M282.072,81.656c-0.521-1.113-1.196-2.1-2.042-2.946c-0.924-0.923-2.005-1.651-3.244-2.187
			c-1.182-0.51-2.442-0.77-3.777-0.793c-3.212,4.871-6.112,10.696-7.974,16.793c0.18,0.213,0.364,0.421,0.562,0.619
			c0.923,0.923,2.005,1.652,3.244,2.186c0.683,0.295,1.393,0.5,2.127,0.633c0.288-0.449,0.562-0.908,0.857-1.353
			C274.883,90.01,278.352,85.721,282.072,81.656z"/>
		<path fill="#FFFFFF" d="M290.854,67.886c0.717,0.717,1.369,1.485,1.992,2.28c4.556-5.73,7.771-12.371,7.202-20.054
			c-0.638-8.611-5.866-18.107-13.429-22.661c-3.213-1.935-6.977-2.695-10.848-2.695c-5.516,0-11.248,1.545-15.906,3.438
			c-5.726,2.327-11.651,5.869-17.977,5.869c-0.443,0-0.89-0.017-1.337-0.054c-8.459-0.69-11.336-8.309-8.24-15.525
			c1.342-3.128,3.416-5.844,5.5-8.504c0.588-0.751,2.08-3.613,2.938-3.98c-33.083,12-24.333,33-24.333,33
			c5.008,11.837,14.917,18.846,26.573,18.846c3.348,0,6.841-0.578,10.401-1.786c4.088-1.387,8.551-3.285,12.956-3.284
			c1.673,0,3.339,0.274,4.971,0.954c3.623,1.508,5.375,4.094,5.926,7.069c1.889,0.328,3.718,0.863,5.482,1.621
			C285.836,63.756,288.546,65.578,290.854,67.886z"/>
		<path fill="#FFFFFF" d="M294.074,71.852c-1.678,2.057-3.423,3.889-5.036,5.471c-2.239,2.197-4.307,4.358-6.233,6.501
			c0.141,0.679,0.214,1.38,0.214,2.103c0,1.41-0.268,2.733-0.802,3.973c-0.535,1.239-1.265,2.321-2.187,3.244
			c-0.924,0.923-2.005,1.652-3.244,2.186c-1.112,0.48-2.296,0.732-3.544,0.781c-0.144,0.006-0.283,0.021-0.428,0.021
			c-0.634,0-1.247-0.062-1.846-0.17l0,0c0.288-0.449,0.562-0.908,0.857-1.353c3.057-4.599,6.525-8.888,10.246-12.952
			c0.853-0.932,1.72-1.852,2.597-2.761c0.084-0.087,0.167-0.175,0.251-0.263c0.895-0.924,1.8-1.838,2.718-2.738
			c0.456-0.447,0.907-0.901,1.354-1.362c0.024-0.024,0.048-0.051,0.072-0.076c6.414-6.634,11.7-14.662,10.984-24.344
			c-0.638-8.611-5.866-18.107-13.429-22.661c-3.213-1.935-6.977-2.695-10.848-2.695c-5.516,0-11.248,1.545-15.906,3.438
			c-5.726,2.327-11.651,5.869-17.977,5.869c-0.443,0-0.89-0.017-1.337-0.054c-8.459-0.69-11.336-8.309-8.24-15.525
			c1.342-3.128,3.416-5.844,5.5-8.504c0.588-0.751,2.08-3.613,2.938-3.98c-33.083,12-24.333,33-24.333,33
			c5.008,11.837,14.917,18.846,26.573,18.846c3.348,0,6.841-0.578,10.401-1.786c4.088-1.387,8.551-3.285,12.956-3.284
			c1.673,0,3.339,0.274,4.971,0.954c3.623,1.509,5.376,4.096,5.926,7.071c0.054,0.286,0.094,0.577,0.125,0.871
			c0.003,0.03,0.006,0.06,0.009,0.089c0.028,0.281,0.047,0.566,0.056,0.853c0.001,0.017,0.002,0.032,0.002,0.05
			c0.025,0.922-0.044,1.865-0.19,2.813c-0.005,0.034-0.011,0.069-0.017,0.104c-0.045,0.279-0.097,0.56-0.154,0.84
			c-0.008,0.037-0.015,0.074-0.022,0.111c-0.198,0.932-0.464,1.859-0.782,2.769c-0.021,0.061-0.043,0.121-0.064,0.181
			c-0.085,0.236-0.173,0.47-0.264,0.701c-0.027,0.072-0.056,0.145-0.085,0.217c-0.095,0.236-0.193,0.471-0.295,0.704
			c-0.022,0.052-0.044,0.104-0.067,0.157c-0.127,0.286-0.258,0.569-0.393,0.849c-0.008,0.017-0.018,0.034-0.025,0.052
			c-0.123,0.252-0.248,0.499-0.376,0.743c-0.043,0.081-0.086,0.161-0.13,0.241c-0.097,0.182-0.194,0.359-0.293,0.535
			c-0.051,0.089-0.102,0.178-0.152,0.266c-0.101,0.174-0.202,0.344-0.305,0.512c-0.046,0.075-0.091,0.152-0.138,0.227
			c-0.147,0.237-0.297,0.471-0.448,0.697c-3.588,5.365-6.53,11.115-8.137,17.211c-0.021-0.023-0.043-0.045-0.062-0.068
			c-0.559-0.658-1.025-1.391-1.412-2.188c-0.07-0.146-0.147-0.287-0.212-0.438c-0.535-1.239-0.802-2.562-0.802-3.973
			c0-1.408,0.267-2.733,0.802-3.973c0.534-1.238,1.263-2.32,2.187-3.243c0.923-0.923,2.005-1.651,3.244-2.187
			c0.523-0.227,1.066-0.394,1.62-0.524c0.363-0.579,0.728-1.158,1.11-1.73c2.596-3.882,4.665-9.592,3.557-13.749
			c-0.763-0.066-1.533-0.105-2.314-0.105c-3.499,0-6.805,0.669-9.913,2.005c-3.11,1.337-5.82,3.159-8.128,5.467
			c-2.309,2.309-4.131,5.019-5.467,8.127c-1.337,3.11-2.004,6.415-2.004,9.913c0,3.499,0.667,6.804,2.004,9.913
			c1.336,3.11,3.158,5.819,5.467,8.128c1.828,1.828,3.918,3.339,6.25,4.557c0.612,0.32,1.231,0.632,1.878,0.91
			c0.08,0.033,0.161,0.062,0.241,0.096c0.058,0.024,0.116,0.047,0.175,0.07c0.569,0.232,1.145,0.445,1.728,0.634
			c2.474,0.8,5.062,1.204,7.77,1.204c3.498,0,6.802-0.668,9.912-2.004c3.109-1.336,5.819-3.158,8.128-5.467
			c2.308-2.309,4.13-5.018,5.467-8.128c1.336-3.109,2.004-6.414,2.004-9.913c0-3.498-0.668-6.803-2.004-9.913
			C295.685,74.533,294.931,73.15,294.074,71.852z"/>
	</g>
</g>
</svg>
